<?xml version="1.0" encoding="iso-8859-1"?>
<!-- Generator: Adobe Illustrator 19.0.0, SVG Export Plug-In . SVG Version: 6.00 Build 0)  -->
<svg xmlns="http://www.w3.org/2000/svg" xmlns:xlink="http://www.w3.org/1999/xlink" version="1.1" id="Layer_1" x="0px" y="0px" viewBox="0 0 512 512" style="enable-background:new 0 0 512 512;" xml:space="preserve" width="512" height="512">
<g>
	<g>
		<polygon style="fill:#D94F88;" points="197.06,315.94 31.875,418.25 0,512 263.211,512 309.5,403.25   "/>
	</g>
	<g>
		<polygon style="fill:#D94F88;" points="383.563,45.938 324.804,187.196 397.625,299.125 512,262.211 512,0   "/>
	</g>
	<g>
		<polygon style="fill:#FA5E97;" points="250.789,0 0,249.789 97.5,340.438 197.06,315.94 324.804,187.196 340.438,44.063   "/>
	</g>
	<polygon style="fill:#FCCED3;" points="503,446 467,446 467,407 437,407 437,446 401,446 401,476 437,476 437,512 467,512 467,476    503,476  "/>
	<g>
		<rect x="482" y="362" style="fill:#FCCED3;" width="30" height="30"/>
	</g>
	<polygon style="fill:#FDE4E4;" points="111,39 75,39 75,0 45,0 45,39 9,39 9,69 45,69 45,105 75,105 75,69 111,69  "/>
	<g>
		<rect y="120" style="fill:#FDE4E4;" width="30" height="30"/>
	</g>
	<g>
		<polygon style="fill:#FF7CB9;" points="0,249.789 0,512 120,392 197.06,315.94 120,299.491   "/>
	</g>
	<g>
		<polygon style="fill:#FF7CB9;" points="250.789,0 300.491,120 324.804,187.196 392,120 512,0   "/>
	</g>
	<g>
		<g>
			<polygon style="fill:#FA5E97;" points="392,212.509 324.804,187.196 197.06,315.94 213.509,392 263.211,512 512,262.211    "/>
		</g>
	</g>
	<g>
		<g>
			<path style="fill:#FFB6FA;" d="M213.509,392H120v-92.509L300.491,120H392v92.509L213.509,392z"/>
		</g>
	</g>
	<polygon style="fill:#FF9AC9;" points="392,212.509 392,120 120,392 213.509,392  "/>
</g>















</svg>
